<?xml version="1.0" encoding="utf-8"?>
<!-- Generator: Adobe Illustrator 16.0.0, SVG Export Plug-In . SVG Version: 6.00 Build 0)  -->
<!DOCTYPE svg PUBLIC "-//W3C//DTD SVG 1.1//EN" "http://www.w3.org/Graphics/SVG/1.1/DTD/svg11.dtd">
<svg version="1.1" id="Layer_1" xmlns="http://www.w3.org/2000/svg" xmlns:xlink="http://www.w3.org/1999/xlink" x="0px" y="0px"
	 width="478px" height="778.596px" viewBox="0 0 478 778.596" enable-background="new 0 0 478 778.596" xml:space="preserve">
<path fill="none" stroke="#E8DDC1" stroke-miterlimit="10" d="M239.982,208.666c0,0,83.318-10,61.318,90s-24.668,135-13.334,153
	s37.334,56,9.334,88s-45,42-75,43s-58-20-62-38s-48.336-97.328-11.002-216.662S208.666,215.996,239.982,208.666z"/>
<path fill="none" stroke="#E8DDC1" stroke-miterlimit="10" d="M232.301,62.666c0,0-2,60-29,90s-63.705,37-68.854,64
	c-5.146,27-6.146,67.02-24.646,87.01c-9.25,9.995-29.375,49.742-39.812,95.491l-5.675-1.359
	c10.522-45.175,30.341-84.235,39.499-94.132c18.5-19.99,22.58-59.602,24.648-87.01c2.34-31,41.852-34,68.852-64s29-90,29-90"/>
<path fill="none" stroke="#E8DDC1" stroke-miterlimit="10" d="M59.79,421.686c-5.683,39.47-2.218,80.467,22.522,108.98
	c59,68-29.334,113-29.334,113"/>
<path fill="none" stroke="#E8DDC1" stroke-miterlimit="10" d="M59.79,421.686"/>
<path fill="none" stroke="#E8DDC1" stroke-miterlimit="10" d="M64.313,397.808"/>
<path fill="none" stroke="#E8DDC1" stroke-miterlimit="10" d="M103.776,145.833c0,0-22.146-32-38.146-14s-8,38-13,47
	s-21.236,20.895-16,38C44.13,241.333,134.63,209.833,103.776,145.833z"/>
<path fill="none" stroke="#E8DDC1" stroke-miterlimit="10" d="M374.301,333.666c0,0-19,29-9,50s15.998,30.332,37.664,32.666
	c21.668,2.334,20-16.576,19-20.787c-1-4.213-22-20.213-19.666-35.213s6.334-44-8.334-40
	C379.299,324.332,374.301,333.666,374.301,333.666z"/>
<polyline fill="none" stroke="#E8DDC1" stroke-miterlimit="10" points="225.354,107.348 282.303,121.774 280.823,126.19 
	223.754,111.732 "/>
<line fill="none" stroke="#E8DDC1" stroke-miterlimit="10" x1="298.869" y1="130.762" x2="373.701" y2="149.719"/>
<path fill="none" stroke="#E8DDC1" stroke-miterlimit="10" d="M298.869,130.762"/>
<path fill="none" stroke="#E8DDC1" stroke-miterlimit="10" d="M285.359,574.15c0,0-4,13-21,23s-14,19.068-3,26.033
	c11,6.967,43.184,8.967,40.092-8.033S295.596,559.26,285.359,574.15z"/>
<path fill="none" stroke="#E8DDC1" stroke-miterlimit="10" d="M274.359,642.15c-0.854-2.877-1-7.5-7-8.5s-8-9.5-15-8.5
	s-18,6-16.5,14.5s10.5,13,16.5,12S276.02,647.746,274.359,642.15z"/>
<path fill="none" stroke="#E8DDC1" stroke-width="3" stroke-miterlimit="10" d="M248.906,617.756c0,0-3.047-6.5-2.547-10.5
	s-2-5.5-6.5-4.5s-10.5,11-6,15S251.156,624.402,248.906,617.756z"/>
<path fill="none" stroke="#E8DDC1" stroke-width="3" stroke-miterlimit="10" d="M225.719,639.369
	c2-3.277,14.391-10.543,8.361-15.244c-6.027-4.701-7.027-4.033-10.361-7.367c-3.332-3.334-11,3.836-10.666,9.252
	C213.387,631.424,221.514,644.949,225.719,639.369"/>
<path fill="none" stroke="#E8DDC1" stroke-width="3" stroke-miterlimit="10" d="M228.002,609.357c0,0,5.334-11.514-1.334-8.59
	c-6.666,2.924-10.666-1.143-10,4.057C217.336,610.023,226.373,613.867,228.002,609.357z"/>
<polyline fill="none" stroke="#E8DDC1" stroke-miterlimit="10" points="373.872,503.847 381.639,503.847 381.639,515.048 
	357.817,515.048 "/>
<polyline fill="none" stroke="#E8DDC1" stroke-miterlimit="10" points="381.639,503.847 390.3,503.847 390.3,493.021 
	373.872,493.021 373.872,503.847 357.817,503.847 357.817,515.048 342.437,515.048 342.437,525.501 367.637,525.501 "/>
<polyline fill="none" stroke="#E8DDC1" stroke-miterlimit="10" points="154.854,100.819 156.037,107.652 146.184,109.358 
	142.555,88.403 "/>
<polyline fill="none" stroke="#E8DDC1" stroke-miterlimit="10" points="156.037,107.652 157.357,115.271 166.881,113.621 
	164.378,99.169 154.854,100.819 152.408,86.696 142.555,88.403 140.211,74.873 131.014,76.466 134.854,98.634 "/>
<line fill="none" stroke="#E8DDC1" stroke-miterlimit="10" x1="362.224" y1="525.501" x2="362.224" y2="517.848"/>
<polyline fill="none" stroke="#E8DDC1" stroke-miterlimit="10" points="54.747,703.03 47.167,704.721 49.605,715.653 
	72.855,710.467 "/>
<polyline fill="none" stroke="#E8DDC1" stroke-miterlimit="10" points="47.167,704.721 38.714,706.607 36.356,696.041 
	52.391,692.464 54.747,703.03 70.417,699.535 72.855,710.467 87.867,707.118 90.144,717.32 65.548,722.808 "/>
<line fill="none" stroke="#E8DDC1" stroke-miterlimit="10" x1="70.831" y1="721.629" x2="69.165" y2="714.159"/>
<path fill="none" stroke="#E8DDC1" stroke-miterlimit="10" d="M362.256,145.502c0,0-33.758,42-20.426,90.666
	c13.33,48.668,3.77,96.666-3.117,124s-3.035,67.521,20.469,82.189c13.416,8.373,54.953,8.113,91.539,10.1"/>
<path fill="none" stroke="#E8DDC1" stroke-miterlimit="10" d="M357.984,145.871c0,0-33.756,42-20.426,90.666
	c13.332,48.668,3.771,96.666-3.115,124s-3.553,68.668,19.779,84.668c13.609,9.332,58.52,8.91,96.498,11.305"/>
<line fill="none" stroke="#E8DDC1" stroke-miterlimit="10" x1="96.709" y1="611.352" x2="216.596" y2="746.158"/>
<line fill="none" stroke="#E8DDC1" stroke-miterlimit="10" x1="94.246" y1="613.799" x2="214.133" y2="748.605"/>
<polyline fill="none" stroke="#E8DDC1" stroke-miterlimit="10" points="439.301,456.666 439.301,528.166 422.469,528.166 
	422.469,549.332 401.301,549.332 401.301,592.166 "/>
<polyline fill="none" stroke="#E8DDC1" stroke-miterlimit="10" points="443.305,456.078 443.305,530.666 425.301,530.666 
	425.301,551.541 404.801,551.541 404.801,592.166 "/>
<path fill="none" stroke="#E8DDC1" stroke-miterlimit="10" d="M362.522,610.019"/>
<path fill="none" stroke="#E8DDC1" stroke-miterlimit="10" d="M401.301,575.166c0,0-20.291,13.643-38.778,34.853l-2.533-2.621
	c19.48-21.891,41.312-36.231,41.312-36.231"/>
<path fill="none" stroke="#E8DDC1" stroke-miterlimit="10" d="M347.818,622.314c-8.326,10.867-11.418,18-15.074,30.947
	c-12.848,45.5-47.848,50-55.848,50.5s-82.15-12-98.326,0"/>
<path fill="none" stroke="#E8DDC1" stroke-miterlimit="10" d="M347.818,622.314"/>
<path fill="none" stroke="#E8DDC1" stroke-miterlimit="10" d="M359.989,607.397"/>
<path fill="none" stroke="#E8DDC1" stroke-width="3" stroke-miterlimit="10" d="M342.633,42.668c-7.332,0-18.666,4.666-17.332,9.334
	c1.332,4.666,5.225,4,8.611,6.666c3.389,2.666,3.387,6.996,8.721,3.998s7.334-9.664,5.334-12.998S346.016,42.559,342.633,42.668"/>
<path fill="none" stroke="#E8DDC1" stroke-width="3" stroke-miterlimit="10" d="M335.648,67.666c0,0,0.08-2.5-3.348-3.982
	c-5.062-2.191-10.25-5.518-12.75-3.768s-6.5,7.25-1.25,9.5s5-0.75,8.5,2.25s2.75,6.75,5.5,6
	C332.301,77.666,336.551,77.104,335.648,67.666z"/>
<path fill="none" stroke="#E8DDC1" stroke-width="3" stroke-miterlimit="10" d="M353.299,68.594c0,0-2.666-8.227-7.332-4.91
	c-4.668,3.316-2.791,3.963-5.541,4.91s-4,10.072,4.875,7.947S354.049,74.146,353.299,68.594z"/>
<path fill="none" stroke="#E8DDC1" stroke-miterlimit="10" d="M306.551,47.541c-3.807-11.195,7.705-16.049,12.184-19.498
	s9.998-2.252,13.201,1.758c3.201,4.01,0.371,8.889-5.598,12.135s-5.975,8.611-6.191,9.723c0,0-0.346,11.008-9.221,4.258
	C310.926,55.916,308.676,53.791,306.551,47.541z"/>
<path fill="none" stroke="#E8DDC1" stroke-miterlimit="10" d="M310.443,59.605c0,0-8.125-4.625-10-10.75s1.375-10.625-5.625-8.625
	s-17,17.158-10.125,22.268c6.875,5.107,12,12.857,17.625,10.857S317.068,61.98,310.443,59.605z"/>
<path fill="none" stroke="#E8DDC1" stroke-miterlimit="10" d="M59.438,421.686l6.281,0.415
	c-5.599,39.344-2.07,80.152,22.582,108.565c59,68-29.334,113-29.334,113"/>
<line fill="none" stroke="#87C878" stroke-miterlimit="10" x1="67.011" y1="398.454" x2="63.25" y2="420"/>
<path fill="none" stroke="#E8DDC1" stroke-width="3" stroke-miterlimit="10" d="M46.143,229.152c0,0,6.915,1.927,10.777,0.771
	c3.861-1.155,5.754,1.062,5.515,5.665c-0.241,4.603-9.108,12.177-13.799,8.401S39.215,228.033,46.143,229.152z"/>
<path fill="none" stroke="#E8DDC1" stroke-width="3" stroke-miterlimit="10" d="M75.812,236.495c0,0-9.626,8.27-8.63,1.057
	c1-7.212-4.004-9.952,1.18-10.729C73.546,226.051,79.707,233.699,75.812,236.495z"/>
<path fill="none" stroke="#E8DDC1" stroke-miterlimit="10" d="M416.869,702.387c0,0-12.182-14.213-21.665-8.057
	c-9.483,6.157-4.544,16.298-16.706,20.92c-12.162,4.621-25.105,4.621-20.725,14.503s26.01,19.004,37.431,8.741
	c11.421-10.262,31.247-13.043,28.175-23.244C423.379,715.25,418.576,704.178,416.869,702.387z"/>
<polyline fill="none" stroke="#E8DDC1" stroke-miterlimit="10" points="298.869,131.208 300.233,126.316 375.301,145.332 "/>
<line fill="none" stroke="#87C878" stroke-miterlimit="10" x1="281.905" y1="124.249" x2="297.65" y2="127.764"/>
<path fill="none" stroke="#E8DDC1" stroke-miterlimit="10" d="M347.818,622.314"/>
<path fill="none" stroke="#E8DDC1" stroke-miterlimit="10" d="M350.925,624.744"/>
<path fill="none" stroke="#E8DDC1" stroke-miterlimit="10" d="M347.32,622.197l3.347,2.547
	c-8.208,10.909-11.284,18.196-15.019,31.422c-12.848,45.5-47.848,50-55.848,50.5s-82.15-12-98.326,0"/>
<line fill="none" stroke="#87C878" stroke-miterlimit="10" x1="349.56" y1="623.293" x2="359.955" y2="610.062"/>
</svg>
